<svg xmlns="http://www.w3.org/2000/svg" xmlns:xlink="http://www.w3.org/1999/xlink" width="854" zoomAndPan="magnify" viewBox="0 0 640.5 660.749985" height="881" preserveAspectRatio="xMidYMid meet" version="1.0"><defs><clipPath id="c4448bdf8b"><path d="M 92.703125 0.132812 L 531.453125 0.132812 L 531.453125 636.882812 L 92.703125 636.882812 Z M 92.703125 0.132812 " clip-rule="nonzero"/></clipPath></defs><path fill="#fadc30" d="M 221.507812 149.386719 C 234.859375 143.816406 248.855469 140.089844 263.164062 137.28125 C 272.988281 135.351562 282.949219 134.320312 292.941406 133.644531 C 299.3125 133.21875 305.714844 133.234375 312.101562 133.050781 C 318.484375 133.234375 324.894531 133.21875 331.261719 133.644531 C 341.253906 134.320312 351.214844 135.351562 361.039062 137.28125 C 375.351562 140.089844 389.34375 143.816406 402.699219 149.386719 C 405.816406 150.6875 408.839844 152.167969 412.082031 153.636719 C 428.582031 133.546875 447.058594 115.199219 467.777344 98.019531 C 465.867188 98.128906 464.339844 98.132812 462.835938 98.320312 C 458.296875 98.867188 453.699219 99.320312 449.898438 102.03125 C 446.691406 104.3125 443.976562 106.960938 442.234375 110.386719 C 441.433594 111.96875 440.492188 113.5 439.742188 115.101562 C 437.097656 120.6875 431.898438 123.019531 425.871094 124.121094 C 414.730469 126.15625 406.511719 121.144531 400.449219 112.578125 C 396.472656 106.949219 394.785156 100.574219 394.132812 93.964844 C 393.800781 90.664062 393.640625 87.34375 393.378906 83.761719 C 392.84375 84.1875 387.722656 89.628906 385.339844 91.75 C 379.941406 96.554688 373.621094 99.996094 366.042969 100.734375 C 356.910156 101.632812 348.304688 100.082031 341.097656 94.445312 C 335.707031 90.222656 332.59375 84.8125 332.222656 78.261719 C 331.71875 69.378906 337.578125 63.351562 347.25 62.6875 C 348.921875 62.570312 350.613281 62.675781 352.875 62.675781 C 350.691406 60.1875 348.378906 58.882812 346.070312 57.570312 C 342.054688 55.273438 337.746094 54.554688 333.183594 55.839844 C 330.910156 56.476562 328.683594 57.269531 326.492188 58.105469 C 323.328125 59.320312 320.210938 60.65625 317.0625 61.917969 C 316.398438 62.183594 315.679688 62.351562 314.449219 62.71875 C 315.425781 59.957031 316.191406 57.5625 317.132812 55.226562 C 319.515625 49.324219 321.898438 43.421875 324.425781 37.570312 C 326.503906 32.765625 326.167969 28.296875 323.453125 23.714844 C 320.164062 18.160156 316.703125 12.75 312.101562 8.011719 C 312.101562 8.011719 312.101562 8.011719 312.101562 8.019531 C 307.496094 12.753906 304.042969 18.167969 300.75 23.714844 C 298.039062 28.296875 297.699219 32.765625 299.773438 37.570312 C 302.308594 43.421875 304.691406 49.324219 307.074219 55.226562 C 308.015625 57.5625 308.773438 59.957031 309.757812 62.71875 C 308.523438 62.351562 307.808594 62.183594 307.136719 61.917969 C 303.992188 60.65625 300.878906 59.320312 297.707031 58.105469 C 295.523438 57.269531 293.296875 56.476562 291.023438 55.839844 C 286.453125 54.554688 282.148438 55.273438 278.128906 57.570312 C 275.828125 58.882812 273.507812 60.1875 271.328125 62.667969 C 273.59375 62.667969 275.285156 62.570312 276.953125 62.6875 C 286.621094 63.351562 292.480469 69.378906 291.976562 78.261719 C 291.605469 84.8125 288.496094 90.222656 283.105469 94.445312 C 275.902344 100.082031 267.289062 101.632812 258.160156 100.734375 C 250.585938 99.996094 244.257812 96.5625 238.867188 91.75 C 236.476562 89.628906 231.359375 84.183594 230.820312 83.761719 C 230.566406 87.34375 230.402344 90.664062 230.074219 93.964844 C 229.421875 100.574219 227.726562 106.949219 223.75 112.578125 C 217.691406 121.144531 209.46875 126.15625 198.335938 124.121094 C 192.308594 123.019531 187.109375 120.6875 184.464844 115.101562 C 183.707031 113.5 182.769531 111.96875 181.964844 110.386719 C 180.230469 106.960938 177.511719 104.3125 174.308594 102.03125 C 170.503906 99.320312 165.910156 98.867188 161.367188 98.320312 C 159.863281 98.132812 158.335938 98.128906 156.429688 98.019531 C 177.148438 115.199219 195.617188 133.546875 212.125 153.636719 C 215.359375 152.167969 218.390625 150.6875 221.507812 149.386719 Z M 312.101562 77.367188 C 312.101562 77.367188 312.101562 77.359375 312.101562 77.359375 C 318.648438 84.8125 325.195312 92.265625 331.8125 99.792969 C 331.582031 100.121094 331.367188 100.515625 331.0625 100.828125 C 324.75 107.199219 318.421875 113.554688 312.101562 119.914062 C 312.101562 119.914062 312.101562 119.914062 312.101562 119.90625 C 305.777344 113.546875 299.457031 107.195312 293.144531 100.828125 C 292.832031 100.515625 292.625 100.121094 292.394531 99.792969 C 299.003906 92.265625 305.550781 84.816406 312.101562 77.367188 " fill-opacity="1" fill-rule="nonzero"/><path fill="#fadc30" d="M 269.199219 149.589844 C 276.945312 148.117188 284.722656 146.804688 292.683594 146.597656 C 299.160156 146.421875 325.046875 146.421875 331.523438 146.597656 C 339.476562 146.804688 347.261719 148.117188 355.007812 149.589844 C 368.570312 152.167969 381.714844 156.078125 394.542969 160.84375 C 398.601562 162.351562 402.507812 164.207031 406.511719 165.847656 C 408.160156 166.519531 409.84375 167.167969 411.582031 167.59375 C 413.441406 168.058594 415.007812 167.363281 415.746094 166.070312 C 416.605469 164.558594 416.304688 163.066406 414.695312 161.867188 C 413.589844 161.042969 412.359375 160.351562 411.101562 159.730469 C 396.492188 152.503906 381.023438 147.46875 364.871094 144.003906 C 347.863281 140.367188 330.660156 138.773438 313.238281 138.894531 C 312.863281 138.894531 311.34375 138.894531 310.960938 138.894531 C 293.539062 138.773438 276.34375 140.367188 259.335938 144.011719 C 243.179688 147.46875 227.707031 152.503906 213.101562 159.730469 C 211.847656 160.351562 210.609375 161.042969 209.511719 161.867188 C 207.898438 163.066406 207.601562 164.558594 208.457031 166.070312 C 209.191406 167.363281 210.761719 168.058594 212.621094 167.59375 C 214.363281 167.167969 216.046875 166.519531 217.691406 165.847656 C 221.699219 164.207031 225.601562 162.351562 229.65625 160.84375 C 242.492188 156.078125 255.632812 152.167969 269.199219 149.589844 " fill-opacity="1" fill-rule="nonzero"/><path fill="#ab9fd7" d="M 312.101562 112.027344 C 312.101562 112.027344 312.101562 112.03125 312.101562 112.03125 C 315.964844 107.980469 319.832031 103.921875 323.941406 99.613281 C 319.988281 94.988281 316.039062 90.375 312.101562 85.765625 C 312.101562 85.765625 312.101562 85.773438 312.101562 85.773438 C 308.160156 90.378906 304.214844 94.988281 300.257812 99.613281 C 304.367188 103.921875 308.230469 107.972656 312.101562 112.027344 " fill-opacity="1" fill-rule="nonzero"/><path fill="#67221b" d="M 261.75 511.984375 C 257.027344 505.816406 252.828125 499.339844 249.773438 492.320312 C 246.007812 483.671875 243.695312 474.652344 242.226562 465.453125 C 240.195312 452.789062 239.617188 440.019531 239.546875 427.246094 C 239.492188 416.226562 240.011719 405.207031 240.226562 394.179688 C 240.265625 392.144531 240.058594 390.097656 239.9375 387.484375 C 225.972656 400.074219 213.691406 413.242188 200.582031 426.519531 C 200.289062 423.621094 199.914062 421.382812 199.863281 419.148438 C 199.742188 413.199219 199.828125 407.25 199.699219 401.296875 C 199.359375 384.695312 200.925781 368.261719 204.703125 352.015625 C 206.929688 342.441406 209.285156 332.882812 211.570312 323.316406 C 211.730469 322.648438 211.773438 321.960938 211.871094 321.28125 C 211.703125 321.246094 211.542969 321.203125 211.378906 321.167969 C 211.160156 321.539062 210.910156 321.890625 210.726562 322.28125 C 206.828125 330.449219 202.835938 338.585938 199.066406 346.804688 C 195.957031 353.578125 192.804688 360.347656 190.226562 367.296875 C 187.402344 374.898438 184.992188 382.648438 182.8125 390.433594 C 180.457031 398.828125 179.089844 407.386719 179.023438 416.113281 C 178.957031 424.355469 179.445312 432.550781 180.984375 440.679688 C 182.554688 448.957031 184.5 457.144531 187.710938 465.054688 C 191.671875 474.808594 197.828125 483.453125 203.824219 492.1875 C 204.066406 492.546875 204.246094 492.945312 204.457031 493.320312 C 205.085938 492.648438 204.582031 486.453125 204.0625 483.699219 C 202.292969 474.425781 202.285156 465.261719 205.558594 456.214844 C 210.523438 442.515625 216.972656 429.515625 226.730469 418.054688 C 226.9375 417.8125 227.261719 417.65625 227.792969 417.273438 C 227.714844 418.09375 227.691406 418.597656 227.617188 419.101562 C 227.125 422.390625 226.527344 425.675781 226.140625 428.976562 C 225.085938 438.078125 225.335938 447.164062 226.78125 456.207031 C 227.972656 463.644531 229.132812 471.101562 230.8125 478.449219 C 233.03125 488.09375 236.785156 497.292969 242.839844 505.507812 C 247.21875 511.441406 251.878906 517.226562 256.78125 522.808594 C 259.875 526.339844 263.441406 529.574219 267.132812 532.597656 C 274.179688 538.367188 289.566406 550.183594 290.027344 550.519531 C 290.144531 549.957031 282.078125 538.128906 277.945312 532.664062 C 272.675781 525.691406 267.070312 518.933594 261.75 511.984375 " fill-opacity="1" fill-rule="nonzero"/><path fill="#d9b459" d="M 157.007812 246.867188 C 157.960938 246.191406 158.898438 245.492188 159.761719 244.863281 C 156.585938 237.257812 158.03125 229.691406 158.09375 222.152344 C 154.636719 225.644531 153.421875 230.085938 151.59375 234.398438 C 151.242188 234.242188 144.625 220.058594 146.121094 212.613281 C 147.121094 207.621094 150.304688 204.117188 155.695312 202.390625 C 159.460938 201.1875 163.261719 201.214844 166.972656 202.160156 C 171.003906 203.175781 174.914062 204.59375 178.871094 205.863281 C 179.566406 206.089844 180.214844 206.441406 181.109375 206.828125 C 179.878906 208.894531 178.738281 210.796875 177.597656 212.703125 C 176.507812 214.527344 174.835938 216.136719 174.871094 218.828125 C 181.496094 215.0625 187.832031 211.410156 196.113281 212.414062 C 193.898438 215.351562 191.824219 218.132812 189.710938 220.890625 C 187.558594 223.707031 185.832031 226.695312 184.804688 230.039062 C 185.488281 229.875 200.046875 219.742188 207.597656 215.925781 C 209.851562 214.785156 212.0625 213.566406 214.207031 212.265625 C 217.203125 210.445312 220.125 208.511719 223.648438 206.261719 C 210.617188 201.996094 198.253906 197.707031 185.707031 193.941406 C 179.675781 192.128906 173.332031 191.046875 167.042969 190.125 C 163.230469 189.570312 159.199219 189.566406 155.363281 190.015625 C 146.21875 191.105469 138.203125 200.105469 137.339844 209.386719 C 136.878906 214.316406 137.652344 219.152344 139.179688 223.898438 C 142.0625 232.859375 153.867188 248.503906 154.238281 248.792969 C 155.195312 248.128906 156.109375 247.511719 157.007812 246.867188 " fill-opacity="1" fill-rule="nonzero"/><path fill="#67221b" d="M 183.441406 257.703125 C 193.882812 252.003906 202.992188 244.886719 211.1875 236.738281 C 218.753906 229.21875 226.191406 221.574219 233.671875 213.96875 C 236.464844 211.125 239.214844 208.242188 241.976562 205.375 C 241.820312 205.246094 228.429688 212.449219 222.480469 217.011719 C 215.085938 222.683594 207.699219 228.367188 200.09375 233.796875 C 189.539062 241.328125 178.230469 247.855469 166.75 254.136719 C 160.761719 257.410156 154.625 260.523438 149.046875 264.316406 C 129.84375 277.390625 115.75 294.011719 108.453125 315.132812 C 107.742188 317.191406 107.199219 319.296875 106.582031 321.378906 C 107.472656 321.035156 113.082031 312.976562 115.660156 309.613281 C 126.832031 295.042969 140.996094 283.210938 156.789062 273.054688 C 165.367188 267.53125 174.421875 262.625 183.441406 257.703125 " fill-opacity="1" fill-rule="nonzero"/><path fill="#67221b" d="M 201.714844 286.230469 C 204.433594 279.0625 206.519531 271.683594 208.851562 264.394531 C 208.980469 264 208.867188 263.539062 208.867188 262.492188 C 207.972656 263.769531 207.398438 264.457031 206.972656 265.214844 C 203.355469 271.683594 198.46875 277.210938 192.453125 281.933594 C 185.714844 287.226562 178.890625 292.421875 172.347656 297.914062 C 167.003906 302.414062 162.363281 307.507812 158.574219 313.261719 C 152.855469 321.949219 149.03125 331.328125 146.121094 341.058594 C 143.386719 350.160156 140.835938 359.3125 139.890625 368.753906 C 139.511719 372.640625 139.410156 376.554688 139.179688 380.457031 C 139.34375 380.484375 139.5 380.511719 139.65625 380.542969 C 139.851562 380.097656 140.101562 379.667969 140.234375 379.207031 C 143.171875 369.226562 146.929688 359.503906 151.554688 350.097656 C 154.011719 345.09375 156.898438 340.1875 160.34375 335.714844 C 164.507812 330.304688 169.355469 325.316406 174.113281 320.308594 C 179.433594 314.699219 185.078125 309.351562 190.386719 303.738281 C 195.300781 298.546875 199.261719 292.707031 201.714844 286.230469 " fill-opacity="1" fill-rule="nonzero"/><path fill="#e8df1e" d="M 269.070312 274.414062 C 268.554688 273.164062 268.210938 272.488281 268 271.777344 C 267.410156 269.757812 266.804688 267.734375 266.363281 265.6875 C 266.097656 264.445312 265.460938 263.601562 264.234375 263.121094 C 263.125 262.6875 261.992188 262.300781 260.578125 261.792969 C 260.132812 265.457031 260.667969 268.519531 261.644531 271.554688 C 262.570312 274.441406 264.46875 276.117188 267.816406 276.570312 C 271.417969 277.0625 274.183594 275.90625 276.949219 273.625 C 275.023438 272.144531 273.386719 270.890625 271.597656 269.515625 C 270.742188 271.167969 270.039062 272.535156 269.070312 274.414062 " fill-opacity="1" fill-rule="nonzero"/><path fill="#d9b459" d="M 372.558594 303.183594 C 374.875 301.511719 377.269531 299.875 379.832031 298.546875 C 387.140625 294.765625 394.546875 291.152344 401.910156 287.457031 C 408.222656 284.292969 409.4375 282.050781 407.25 275.714844 C 403.929688 266.105469 399.402344 256.980469 393.644531 248.34375 C 391.007812 244.386719 387.410156 242.898438 382.71875 243.007812 C 380.152344 243.058594 377.582031 243.296875 375.042969 243.625 C 371.464844 244.085938 367.921875 244.710938 363.980469 245.332031 C 364.273438 244.492188 364.40625 243.851562 364.714844 243.296875 C 366.152344 240.726562 367.679688 238.207031 369.105469 235.632812 C 369.707031 234.546875 370.152344 233.390625 370.617188 232.246094 C 372.082031 228.660156 371.828125 225.199219 369.582031 221.9375 C 367.90625 219.503906 366.257812 217.039062 364.390625 214.734375 C 361.671875 211.375 357.839844 209.425781 353.550781 208.246094 C 349.800781 207.21875 346.390625 208.230469 343.136719 209.898438 C 337.382812 212.859375 333.328125 217.382812 329.824219 222.324219 C 322.8125 232.21875 317.398438 242.773438 314.222656 254.257812 C 313.667969 256.269531 312.816406 258.210938 312.101562 260.191406 C 312.101562 260.183594 312.101562 260.179688 312.101562 260.171875 C 311.386719 258.199219 310.539062 256.265625 309.984375 254.257812 C 306.808594 242.773438 301.394531 232.21875 294.382812 222.324219 C 290.878906 217.382812 286.816406 212.855469 281.066406 209.898438 C 277.816406 208.230469 274.402344 207.21875 270.65625 208.246094 C 266.363281 209.425781 262.535156 211.375 259.816406 214.734375 C 257.949219 217.039062 256.292969 219.503906 254.617188 221.9375 C 252.378906 225.199219 252.125 228.660156 253.585938 232.246094 C 254.054688 233.390625 254.5 234.546875 255.101562 235.632812 C 256.523438 238.207031 258.050781 240.726562 259.488281 243.296875 C 259.800781 243.851562 259.925781 244.492188 260.226562 245.332031 C 256.28125 244.710938 252.738281 244.085938 249.160156 243.625 C 246.621094 243.296875 244.046875 243.058594 241.484375 243 C 236.796875 242.898438 233.191406 244.386719 230.558594 248.34375 C 224.804688 256.980469 220.273438 266.105469 216.957031 275.714844 C 214.761719 282.050781 215.984375 284.292969 222.292969 287.457031 C 229.65625 291.152344 237.066406 294.765625 244.371094 298.546875 C 246.933594 299.875 249.328125 301.511719 251.648438 303.183594 C 253.65625 304.621094 255.460938 306.300781 256.636719 308.566406 C 250.902344 311.675781 247.546875 316.488281 244.355469 321.8125 C 245.933594 323.960938 247.257812 326.363281 249.191406 328.222656 C 251.121094 330.085938 253.667969 331.402344 255.945312 332.957031 C 253.113281 333.082031 250.296875 333.148438 247.65625 332.53125 C 245.050781 331.917969 242.625 330.617188 239.820312 329.5 C 239.160156 331.445312 238.472656 333.246094 237.941406 335.082031 C 237.074219 338.027344 237.273438 338.460938 240.324219 339.746094 C 246.738281 342.445312 253.503906 343.753906 260.550781 343.898438 C 261.140625 343.902344 261.726562 343.960938 262.308594 343.996094 C 254.488281 348.4375 246.140625 348.683594 237.574219 346.847656 C 237.152344 351.050781 238.8125 355.746094 242.117188 359.902344 C 250.132812 358.902344 257.972656 357.0625 265.503906 353.878906 C 265.132812 354.867188 264.691406 355.722656 264.074219 356.457031 C 261.925781 358.992188 259.175781 360.855469 255.992188 362.164062 C 253.816406 363.058594 251.589844 363.84375 249.410156 364.730469 C 248.785156 364.984375 248.253906 365.421875 247.535156 365.855469 C 248.101562 366.277344 248.359375 366.5625 248.691406 366.699219 C 249.382812 366.984375 250.097656 367.25 250.832031 367.410156 C 261.464844 369.789062 271.476562 368.476562 280.710938 362.988281 C 287.582031 358.902344 294.199219 354.457031 301.683594 351.242188 C 305.199219 349.738281 307.496094 347.015625 308.183594 343.382812 C 309.109375 338.542969 308.011719 334.316406 303.523438 331.230469 C 301.851562 330.085938 300.15625 328.945312 298.339844 328.007812 C 294.132812 325.824219 289.542969 324.671875 284.757812 324.226562 C 276.902344 323.503906 270.839844 320.246094 266.9375 313.863281 C 266.660156 313.398438 266.582031 312.832031 266.238281 311.78125 C 268.71875 312.9375 270.621094 313.894531 272.589844 314.730469 C 277.019531 316.597656 281.019531 315.574219 283.746094 311.960938 C 286.070312 308.878906 287.847656 308.335938 291.515625 309.796875 C 298.089844 312.410156 304.882812 313.890625 312.101562 313.253906 C 312.101562 313.25 312.101562 313.25 312.101562 313.25 C 319.320312 313.890625 326.113281 312.410156 332.691406 309.796875 C 336.359375 308.335938 338.136719 308.878906 340.460938 311.960938 C 343.183594 315.574219 347.1875 316.597656 351.613281 314.730469 C 353.578125 313.894531 355.488281 312.9375 357.964844 311.78125 C 357.621094 312.832031 357.546875 313.398438 357.261719 313.863281 C 353.359375 320.246094 347.296875 323.503906 339.449219 324.226562 C 334.664062 324.671875 330.066406 325.824219 325.867188 328.007812 C 324.050781 328.945312 322.355469 330.085938 320.691406 331.230469 C 316.195312 334.316406 315.097656 338.542969 316.023438 343.382812 C 316.710938 347.015625 319.007812 349.738281 322.515625 351.242188 C 330.003906 354.457031 336.621094 358.902344 343.496094 362.988281 C 352.726562 368.476562 362.742188 369.789062 373.371094 367.410156 C 374.105469 367.25 374.824219 366.984375 375.511719 366.699219 C 375.847656 366.5625 376.101562 366.277344 376.667969 365.855469 C 375.953125 365.421875 375.414062 364.984375 374.789062 364.730469 C 372.613281 363.84375 370.382812 363.058594 368.210938 362.164062 C 365.03125 360.855469 362.273438 358.992188 360.132812 356.457031 C 359.519531 355.722656 359.074219 354.867188 358.703125 353.878906 C 366.230469 357.0625 374.070312 358.902344 382.089844 359.902344 C 385.390625 355.746094 387.050781 351.050781 386.625 346.847656 C 378.0625 348.683594 369.710938 348.4375 361.890625 343.996094 C 362.480469 343.960938 363.066406 343.902344 363.65625 343.898438 C 370.699219 343.753906 377.46875 342.445312 383.882812 339.746094 C 386.929688 338.460938 387.128906 338.027344 386.265625 335.082031 C 385.734375 333.246094 385.046875 331.445312 384.386719 329.5 C 381.582031 330.617188 379.15625 331.917969 376.542969 332.53125 C 373.910156 333.148438 371.09375 333.082031 368.257812 332.957031 C 370.539062 331.402344 373.082031 330.085938 375.015625 328.222656 C 376.945312 326.363281 378.265625 323.960938 379.84375 321.8125 C 376.65625 316.488281 373.304688 311.675781 367.570312 308.566406 C 368.746094 306.300781 370.554688 304.621094 372.558594 303.183594 Z M 269.644531 246.84375 C 270.199219 245.542969 270.460938 244.105469 271.21875 242.925781 C 274.519531 237.8125 282.421875 227.371094 282.640625 227.429688 C 282.046875 230.242188 281.390625 233.039062 280.863281 235.859375 C 280.304688 238.871094 279.742188 241.890625 279.417969 244.925781 C 279.136719 247.503906 279.921875 249.925781 281.300781 252.214844 C 281.976562 253.351562 282.578125 254.605469 282.808594 255.863281 C 283.289062 258.484375 281.488281 260.046875 278.625 259.699219 C 277.972656 259.617188 277.3125 259.472656 276.699219 259.242188 C 272.535156 257.675781 268.042969 250.613281 269.644531 246.84375 Z M 295.105469 256.898438 C 289.738281 265.828125 285.667969 275.25 282.652344 285.027344 C 281.050781 290.230469 280.089844 295.597656 278.839844 300.894531 C 278.683594 301.558594 278.527344 302.222656 278.082031 302.910156 C 275 296.480469 274.238281 289.625 273.582031 282.644531 C 271.496094 282.332031 269.492188 282.1875 267.585938 281.722656 C 265.671875 281.253906 263.789062 280.582031 262.007812 279.789062 C 259.382812 278.617188 257.78125 276.617188 256.980469 274.03125 C 256.335938 271.925781 255.582031 269.851562 254.832031 267.78125 C 254.4375 266.707031 254.027344 265.625 253.488281 264.613281 C 252.273438 262.339844 250.386719 260.84375 247.511719 260.710938 C 244.464844 260.578125 236.941406 260.398438 236.019531 259.902344 C 236.980469 259.269531 249.070312 254.03125 254.796875 254.285156 C 258.011719 254.425781 261.105469 255.015625 263.710938 256.761719 C 267.320312 259.183594 270.792969 261.78125 274.253906 264.382812 C 276.308594 265.925781 278.214844 267.625 280.410156 269.433594 C 284.296875 262.75 289.476562 257.496094 296.90625 253.273438 C 296.140625 254.824219 295.707031 255.898438 295.105469 256.898438 Z M 341.398438 255.863281 C 341.621094 254.605469 342.230469 253.351562 342.90625 252.214844 C 344.285156 249.925781 345.0625 247.503906 344.785156 244.925781 C 344.460938 241.890625 343.894531 238.871094 343.339844 235.859375 C 342.8125 233.039062 342.160156 230.242188 341.558594 227.429688 C 341.785156 227.371094 349.6875 237.8125 352.988281 242.925781 C 353.746094 244.105469 354.007812 245.542969 354.554688 246.84375 C 356.164062 250.613281 351.671875 257.675781 347.503906 259.242188 C 346.890625 259.472656 346.234375 259.617188 345.578125 259.699219 C 342.714844 260.046875 340.917969 258.484375 341.398438 255.863281 Z M 367.222656 274.03125 C 366.425781 276.617188 364.824219 278.617188 362.195312 279.789062 C 360.414062 280.582031 358.53125 281.253906 356.621094 281.722656 C 354.710938 282.1875 352.710938 282.332031 350.617188 282.644531 C 349.96875 289.625 349.199219 296.480469 346.117188 302.910156 C 345.675781 302.222656 345.519531 301.558594 345.363281 300.894531 C 344.109375 295.597656 343.15625 290.230469 341.546875 285.027344 C 338.535156 275.25 334.460938 265.828125 329.101562 256.898438 C 328.503906 255.898438 328.066406 254.824219 327.300781 253.273438 C 334.726562 257.496094 339.910156 262.75 343.796875 269.433594 C 345.988281 267.625 347.898438 265.925781 349.953125 264.382812 C 353.410156 261.78125 356.886719 259.183594 360.492188 256.761719 C 363.09375 255.015625 366.195312 254.425781 369.40625 254.285156 C 375.128906 254.03125 387.226562 259.269531 388.179688 259.902344 C 387.265625 260.398438 379.734375 260.578125 376.691406 260.710938 C 373.816406 260.84375 371.925781 262.339844 370.71875 264.613281 C 370.171875 265.625 369.769531 266.707031 369.375 267.78125 C 368.625 269.851562 367.867188 271.925781 367.222656 274.03125 " fill-opacity="1" fill-rule="nonzero"/><path fill="#e7f29d" d="M 342.90625 401.726562 C 342.980469 400.097656 342.917969 398.464844 342.917969 396.296875 C 350.425781 401.074219 352.695312 407.929688 354.683594 415.457031 C 357.605469 410.699219 359.542969 406.179688 360.792969 401.410156 C 361.851562 397.378906 362.179688 393.300781 361.472656 389.167969 C 360.953125 386.144531 359.207031 384.023438 356.234375 382.746094 C 354.855469 382.15625 353.398438 381.714844 351.953125 381.265625 C 347.597656 379.890625 343.988281 377.691406 341.34375 374.085938 C 339.007812 370.886719 336.351562 367.886719 333.714844 364.890625 C 330.648438 361.40625 326.894531 358.710938 322.042969 357.726562 C 319.636719 357.242188 317.121094 357.234375 314.664062 357.023438 C 313.804688 356.945312 312.949219 356.914062 312.101562 356.855469 C 311.25 356.914062 310.394531 356.945312 309.542969 357.023438 C 307.078125 357.234375 304.5625 357.242188 302.164062 357.726562 C 297.308594 358.710938 293.550781 361.40625 290.488281 364.890625 C 287.851562 367.886719 285.199219 370.886719 282.859375 374.085938 C 280.21875 377.691406 276.609375 379.890625 272.253906 381.265625 C 270.804688 381.714844 269.347656 382.15625 267.972656 382.746094 C 265 384.023438 263.253906 386.144531 262.730469 389.167969 C 262.027344 393.300781 262.351562 397.378906 263.410156 401.410156 C 264.664062 406.179688 266.601562 410.699219 269.515625 415.457031 C 271.507812 407.929688 273.78125 401.074219 281.289062 396.296875 C 281.289062 398.464844 281.222656 400.097656 281.292969 401.726562 C 281.476562 406.09375 281.378906 410.492188 282.023438 414.804688 C 282.96875 421.210938 286.597656 426.617188 290.808594 431.671875 C 291.496094 432.496094 292.503906 433.105469 293.363281 433.816406 C 291.457031 423.164062 291.78125 413.121094 298.152344 403.824219 C 298.578125 404.769531 298.710938 405.699219 298.871094 406.628906 C 299.167969 408.359375 299.363281 410.109375 299.8125 411.796875 C 301.589844 418.355469 304.25 424.628906 307.246094 430.78125 C 308.738281 433.855469 310.476562 436.832031 312.101562 439.855469 C 312.101562 439.863281 312.101562 439.863281 312.101562 439.867188 C 313.726562 436.839844 315.460938 433.863281 316.957031 430.78125 C 319.949219 424.628906 322.617188 418.355469 324.390625 411.796875 C 324.84375 410.109375 325.035156 408.359375 325.335938 406.628906 C 325.496094 405.699219 325.628906 404.769531 326.046875 403.824219 C 332.421875 413.121094 332.75 423.164062 330.839844 433.816406 C 331.703125 433.105469 332.703125 432.496094 333.398438 431.671875 C 337.609375 426.617188 341.234375 421.210938 342.183594 414.804688 C 342.824219 410.492188 342.726562 406.09375 342.90625 401.726562 " fill-opacity="1" fill-rule="nonzero"/><path fill="#fadc30" d="M 395.382812 167.683594 C 376.144531 159.964844 356.175781 154.546875 335.238281 152.644531 C 327.574219 151.945312 319.808594 152.164062 312.101562 151.960938 C 304.382812 152.164062 296.628906 151.945312 288.96875 152.644531 C 268.03125 154.546875 248.0625 159.964844 228.820312 167.683594 C 227.113281 168.371094 225.515625 169.285156 223.757812 170.144531 C 225.46875 173.550781 227.046875 176.695312 228.644531 179.886719 C 229.308594 179.71875 229.675781 179.648438 230.023438 179.539062 C 234.949219 177.914062 239.832031 176.164062 244.804688 174.667969 C 264.460938 168.75 284.484375 164.652344 305.304688 164.511719 C 307.570312 164.503906 316.628906 164.503906 318.898438 164.511719 C 339.71875 164.652344 359.746094 168.75 379.398438 174.667969 C 384.375 176.164062 389.253906 177.914062 394.183594 179.539062 C 394.53125 179.648438 394.894531 179.71875 395.5625 179.886719 C 397.15625 176.695312 398.734375 173.550781 400.449219 170.144531 C 398.691406 169.285156 397.09375 168.371094 395.382812 167.683594 " fill-opacity="1" fill-rule="nonzero"/><path fill="#fadc30" d="M 394.710938 196.128906 C 397.019531 196.242188 398.765625 194.914062 399.359375 192.972656 C 400.015625 190.855469 399.269531 188.867188 397.191406 187.761719 C 395.386719 186.796875 393.511719 185.894531 391.574219 185.171875 C 380.78125 181.183594 369.808594 177.679688 358.523438 175.023438 C 343.746094 171.550781 312.5625 170.273438 312.101562 170.351562 C 311.539062 170.277344 280.429688 171.554688 265.679688 175.023438 C 254.398438 177.679688 243.417969 181.183594 232.628906 185.171875 C 230.691406 185.894531 228.820312 186.796875 227.007812 187.761719 C 224.933594 188.867188 224.191406 190.855469 224.84375 192.972656 C 225.441406 194.914062 227.1875 196.242188 229.496094 196.128906 C 231.171875 196.046875 232.917969 195.769531 234.480469 195.214844 C 240.082031 193.230469 245.5625 190.964844 251.1875 189.039062 C 267.601562 183.414062 284.628906 180.703125 302.128906 180.320312 C 305.453125 180.25 318.746094 180.25 322.070312 180.320312 C 339.574219 180.703125 356.605469 183.414062 373.019531 189.039062 C 378.640625 190.964844 384.125 193.230469 389.722656 195.214844 C 391.285156 195.769531 393.03125 196.046875 394.710938 196.128906 " fill-opacity="1" fill-rule="nonzero"/><path fill="#67221b" d="M 433.972656 367.296875 C 431.394531 360.347656 428.242188 353.578125 425.140625 346.804688 C 421.363281 338.585938 417.378906 330.449219 413.480469 322.28125 C 413.296875 321.890625 413.046875 321.539062 412.828125 321.167969 C 412.664062 321.203125 412.496094 321.246094 412.335938 321.28125 C 412.433594 321.960938 412.472656 322.648438 412.636719 323.316406 C 414.914062 332.882812 417.273438 342.441406 419.5 352.015625 C 423.277344 368.261719 424.847656 384.695312 424.5 401.296875 C 424.378906 407.25 424.464844 413.199219 424.34375 419.148438 C 424.289062 421.382812 423.914062 423.621094 423.621094 426.519531 C 410.507812 413.242188 398.234375 400.074219 384.265625 387.484375 C 384.148438 390.097656 383.941406 392.144531 383.976562 394.179688 C 384.1875 405.207031 384.714844 416.226562 384.65625 427.246094 C 384.582031 440.019531 384.007812 452.789062 381.980469 465.453125 C 380.511719 474.652344 378.195312 483.671875 374.429688 492.320312 C 371.375 499.339844 367.175781 505.816406 362.457031 511.984375 C 357.136719 518.933594 351.53125 525.691406 346.257812 532.664062 C 342.125 538.128906 334.0625 549.957031 334.179688 550.519531 C 334.636719 550.183594 350.027344 538.367188 357.074219 532.597656 C 360.761719 529.574219 364.332031 526.339844 367.425781 522.808594 C 372.324219 517.226562 376.988281 511.441406 381.367188 505.507812 C 387.421875 497.292969 391.175781 488.09375 393.390625 478.449219 C 395.074219 471.101562 396.230469 463.644531 397.421875 456.207031 C 398.871094 447.164062 399.117188 438.078125 398.058594 428.976562 C 397.675781 425.675781 397.082031 422.390625 396.597656 419.101562 C 396.515625 418.597656 396.484375 418.09375 396.410156 417.273438 C 396.941406 417.65625 397.265625 417.8125 397.476562 418.054688 C 407.234375 429.515625 413.675781 442.515625 418.640625 456.214844 C 421.917969 465.261719 421.90625 474.425781 420.144531 483.699219 C 419.625 486.453125 419.113281 492.648438 419.75 493.320312 C 419.957031 492.945312 420.136719 492.546875 420.378906 492.1875 C 426.375 483.453125 432.535156 474.808594 436.496094 465.054688 C 439.707031 457.144531 441.648438 448.957031 443.21875 440.679688 C 444.761719 432.550781 445.242188 424.355469 445.179688 416.113281 C 445.109375 407.386719 443.75 398.828125 441.394531 390.433594 C 439.214844 382.648438 436.800781 374.898438 433.972656 367.296875 " fill-opacity="1" fill-rule="nonzero"/><path fill="#d9b459" d="M 409.992188 212.265625 C 412.144531 213.566406 414.355469 214.785156 416.609375 215.925781 C 424.15625 219.742188 438.71875 229.875 439.394531 230.039062 C 438.375 226.695312 436.644531 223.707031 434.496094 220.890625 C 432.382812 218.132812 430.304688 215.351562 428.089844 212.414062 C 436.375 211.410156 442.707031 215.0625 449.335938 218.828125 C 449.371094 216.136719 447.699219 214.527344 446.601562 212.703125 C 445.460938 210.796875 444.328125 208.894531 443.09375 206.828125 C 443.992188 206.441406 444.640625 206.089844 445.332031 205.863281 C 449.289062 204.59375 453.199219 203.175781 457.230469 202.160156 C 460.945312 201.214844 464.738281 201.1875 468.503906 202.390625 C 473.902344 204.117188 477.078125 207.621094 478.078125 212.613281 C 479.582031 220.058594 472.964844 234.242188 472.613281 234.398438 C 470.785156 230.085938 469.570312 225.644531 466.109375 222.152344 C 466.175781 229.691406 467.621094 237.257812 464.445312 244.863281 C 465.308594 245.492188 466.242188 246.191406 467.199219 246.867188 C 468.09375 247.511719 469.007812 248.128906 469.96875 248.792969 C 470.339844 248.503906 482.140625 232.859375 485.023438 223.898438 C 486.550781 219.152344 487.328125 214.316406 486.863281 209.386719 C 486.003906 200.105469 477.984375 191.105469 468.839844 190.015625 C 465.007812 189.566406 460.972656 189.570312 457.164062 190.125 C 450.875 191.046875 444.53125 192.128906 438.496094 193.941406 C 425.945312 197.707031 413.589844 201.996094 400.550781 206.261719 C 404.082031 208.511719 407 210.445312 409.992188 212.265625 " fill-opacity="1" fill-rule="nonzero"/><path fill="#67221b" d="M 475.15625 264.316406 C 469.582031 260.523438 463.445312 257.410156 457.457031 254.136719 C 445.976562 247.855469 434.667969 241.328125 424.113281 233.796875 C 416.503906 228.367188 409.117188 222.683594 401.722656 217.011719 C 395.773438 212.449219 382.382812 205.246094 382.226562 205.375 C 384.992188 208.242188 387.742188 211.125 390.535156 213.96875 C 398.011719 221.574219 405.445312 229.21875 413.015625 236.738281 C 421.207031 244.886719 430.324219 252.003906 440.765625 257.703125 C 449.777344 262.625 458.835938 267.53125 467.417969 273.054688 C 483.210938 283.210938 497.367188 295.042969 508.542969 309.613281 C 511.117188 312.976562 516.734375 321.035156 517.625 321.378906 C 517.007812 319.296875 516.460938 317.191406 515.75 315.132812 C 508.457031 294.011719 494.359375 277.390625 475.15625 264.316406 " fill-opacity="1" fill-rule="nonzero"/><path fill="#67221b" d="M 478.085938 341.058594 C 475.167969 331.328125 471.351562 321.949219 465.625 313.261719 C 461.84375 307.507812 457.203125 302.414062 451.851562 297.914062 C 445.316406 292.421875 438.484375 287.226562 431.753906 281.933594 C 425.738281 277.210938 420.847656 271.683594 417.226562 265.214844 C 416.804688 264.457031 416.234375 263.769531 415.335938 262.492188 C 415.335938 263.539062 415.226562 264 415.355469 264.394531 C 417.683594 271.683594 419.773438 279.0625 422.492188 286.230469 C 424.945312 292.707031 428.90625 298.546875 433.8125 303.738281 C 439.128906 309.351562 444.773438 314.699219 450.09375 320.308594 C 454.84375 325.316406 459.695312 330.304688 463.859375 335.714844 C 467.300781 340.1875 470.195312 345.09375 472.652344 350.097656 C 477.273438 359.503906 481.035156 369.226562 483.96875 379.207031 C 484.105469 379.667969 484.355469 380.097656 484.546875 380.542969 C 484.707031 380.511719 484.863281 380.484375 485.023438 380.457031 C 484.792969 376.554688 484.695312 372.640625 484.3125 368.753906 C 483.371094 359.3125 480.8125 350.160156 478.085938 341.058594 " fill-opacity="1" fill-rule="nonzero"/><path fill="#e8df1e" d="M 359.96875 263.121094 C 358.742188 263.601562 358.101562 264.445312 357.835938 265.6875 C 357.394531 267.734375 356.789062 269.757812 356.203125 271.777344 C 355.996094 272.488281 355.648438 273.164062 355.132812 274.414062 C 354.167969 272.535156 353.464844 271.167969 352.605469 269.515625 C 350.8125 270.890625 349.175781 272.144531 347.257812 273.625 C 350.019531 275.90625 352.785156 277.0625 356.382812 276.570312 C 359.738281 276.117188 361.636719 274.441406 362.5625 271.554688 C 363.539062 268.519531 364.066406 265.457031 363.625 261.792969 C 362.214844 262.300781 361.082031 262.6875 359.96875 263.121094 " fill-opacity="1" fill-rule="nonzero"/><path fill="#e7f29d" d="M 249.867188 306.652344 C 255.375 305.90625 261.558594 310.535156 266.261719 312.953125 C 272.5 316.164062 277.332031 319.515625 284.300781 320.625 C 292.960938 321.996094 305.941406 319.972656 309.121094 329.144531 C 310.371094 332.734375 310.019531 336.472656 311.121094 340.011719 C 311.890625 342.46875 313.996094 345.746094 312.441406 348.5625 C 311.242188 350.738281 305.96875 352.933594 303.910156 354.078125 C 300.359375 356.050781 296.640625 357.691406 293.105469 359.703125 C 286.09375 363.710938 277.972656 370.449219 270.175781 372.703125 C 266.085938 373.882812 262.285156 372.957031 257.84375 374.640625 C 253.136719 376.425781 248.289062 377.640625 243.464844 374.929688 C 236.515625 371.03125 232.171875 362.636719 228.640625 355.914062 C 224.863281 348.730469 225.222656 344.152344 228.53125 336.515625 C 232.035156 328.441406 238.53125 323.101562 243.152344 315.960938 C 244.332031 314.132812 244.308594 310.136719 245.464844 309.363281 " fill-opacity="1" fill-rule="nonzero"/><path fill="#e7f29d" d="M 376.132812 305.679688 C 370.625 304.933594 364.441406 309.566406 359.738281 311.988281 C 353.496094 315.195312 348.671875 318.550781 341.703125 319.65625 C 333.042969 321.023438 320.066406 319 316.878906 328.171875 C 315.632812 331.761719 315.980469 335.503906 314.875 339.042969 C 314.105469 341.5 312 344.777344 313.558594 347.597656 C 314.761719 349.765625 320.035156 351.964844 322.09375 353.109375 C 325.640625 355.078125 329.367188 356.722656 332.894531 358.738281 C 339.90625 362.742188 348.027344 369.476562 355.824219 371.730469 C 359.914062 372.917969 363.710938 371.984375 368.15625 373.667969 C 372.863281 375.453125 377.710938 376.667969 382.539062 373.960938 C 389.488281 370.058594 393.824219 361.664062 397.367188 354.945312 C 401.140625 347.761719 400.777344 343.179688 397.46875 335.550781 C 393.96875 327.472656 387.472656 322.128906 382.851562 314.988281 C 381.667969 313.160156 381.695312 309.167969 380.539062 308.390625 " fill-opacity="1" fill-rule="nonzero"/><path fill="#ffffff" d="M 327.640625 101.777344 L 315.691406 87.519531 L 316.644531 86.375 L 312.1875 82.636719 L 311.890625 82.984375 L 311.597656 82.636719 L 307.136719 86.375 L 308.097656 87.519531 L 296.140625 101.777344 L 300.601562 105.515625 L 311.890625 92.046875 L 323.183594 105.515625 L 327.640625 101.777344 " fill-opacity="1" fill-rule="nonzero"/><path fill="#201d1c" d="M 312.101562 119.90625 C 312.101562 119.914062 312.101562 119.914062 312.101562 119.914062 C 318.421875 113.554688 324.75 107.199219 331.0625 100.828125 C 331.367188 100.515625 331.582031 100.121094 331.8125 99.792969 C 325.195312 92.265625 318.648438 84.8125 312.101562 77.359375 C 312.101562 77.359375 312.101562 77.367188 312.101562 77.367188 C 305.550781 84.816406 299.003906 92.265625 292.394531 99.792969 C 292.625 100.121094 292.832031 100.515625 293.144531 100.828125 C 299.457031 107.195312 305.777344 113.546875 312.101562 119.90625 Z M 312.101562 85.765625 C 316.039062 90.375 319.988281 94.988281 323.941406 99.613281 C 319.832031 103.921875 315.964844 107.980469 312.101562 112.03125 C 312.101562 112.03125 312.101562 112.027344 312.101562 112.027344 C 308.230469 107.972656 304.367188 103.921875 300.257812 99.613281 C 304.214844 94.988281 308.160156 90.378906 312.101562 85.773438 C 312.101562 85.773438 312.101562 85.765625 312.101562 85.765625 " fill-opacity="1" fill-rule="nonzero"/><path fill="#201d1c" d="M 280.410156 269.433594 C 278.214844 267.625 276.308594 265.925781 274.253906 264.382812 C 270.792969 261.78125 267.320312 259.183594 263.710938 256.761719 C 261.105469 255.015625 258.011719 254.425781 254.796875 254.285156 C 249.070312 254.03125 236.980469 259.269531 236.019531 259.902344 C 236.941406 260.398438 244.464844 260.578125 247.511719 260.710938 C 250.386719 260.84375 252.273438 262.339844 253.488281 264.613281 C 254.027344 265.625 254.4375 266.707031 254.832031 267.78125 C 255.582031 269.851562 256.335938 271.925781 256.980469 274.03125 C 257.78125 276.617188 259.382812 278.617188 262.007812 279.789062 C 263.789062 280.582031 265.671875 281.253906 267.585938 281.722656 C 269.492188 282.1875 271.496094 282.332031 273.582031 282.644531 C 274.238281 289.625 275 296.480469 278.082031 302.910156 C 278.527344 302.222656 278.683594 301.558594 278.839844 300.894531 C 280.089844 295.597656 281.050781 290.230469 282.652344 285.027344 C 285.667969 275.25 289.738281 265.828125 295.105469 256.898438 C 295.707031 255.898438 296.140625 254.824219 296.90625 253.273438 C 289.476562 257.496094 284.296875 262.75 280.410156 269.433594 Z M 267.816406 276.570312 C 264.46875 276.117188 262.570312 274.441406 261.644531 271.554688 C 260.667969 268.519531 260.132812 265.457031 260.578125 261.792969 C 261.992188 262.300781 263.125 262.6875 264.234375 263.121094 C 265.460938 263.601562 266.097656 264.445312 266.363281 265.6875 C 266.804688 267.734375 267.410156 269.757812 268 271.777344 C 268.210938 272.488281 268.554688 273.164062 269.070312 274.414062 C 270.039062 272.535156 270.742188 271.167969 271.597656 269.515625 C 273.386719 270.890625 275.023438 272.144531 276.949219 273.625 C 274.183594 275.90625 271.417969 277.0625 267.816406 276.570312 " fill-opacity="1" fill-rule="nonzero"/><path fill="#201d1c" d="M 276.699219 259.242188 C 277.3125 259.472656 277.972656 259.617188 278.625 259.699219 C 281.488281 260.046875 283.289062 258.484375 282.808594 255.863281 C 282.578125 254.605469 281.976562 253.351562 281.300781 252.214844 C 279.921875 249.925781 279.136719 247.503906 279.417969 244.925781 C 279.742188 241.890625 280.304688 238.871094 280.863281 235.859375 C 281.390625 233.039062 282.046875 230.242188 282.640625 227.429688 C 282.421875 227.371094 274.519531 237.8125 271.21875 242.925781 C 270.460938 244.105469 270.199219 245.542969 269.644531 246.84375 C 268.042969 250.613281 272.535156 257.675781 276.699219 259.242188 " fill-opacity="1" fill-rule="nonzero"/><g clip-path="url(#c4448bdf8b)"><path fill="#201d1c" d="M 528.992188 324.140625 C 527.433594 315.886719 524.09375 308.148438 519.960938 300.726562 C 515.015625 291.820312 509.386719 283.28125 502.324219 275.621094 C 500.054688 273.15625 497.542969 270.863281 495.03125 268.589844 C 489.449219 263.554688 483.648438 258.746094 477.378906 254.417969 C 477.078125 254.210938 476.835938 253.945312 476.40625 253.574219 C 478.519531 250.246094 480.636719 246.945312 482.710938 243.625 C 483.996094 241.578125 485.199219 239.484375 486.472656 237.433594 C 490.78125 230.464844 493.070312 222.910156 493.824219 214.988281 C 494.929688 203.304688 490.265625 193.875 479.789062 187.101562 C 473.382812 182.964844 466.046875 182.152344 458.421875 183.148438 C 447.136719 184.617188 436.21875 187.375 425.503906 190.902344 C 419.496094 192.882812 413.480469 194.855469 407.464844 196.828125 C 406.769531 197.054688 406.046875 197.226562 404.90625 197.542969 C 408.394531 191.515625 407.261719 186.542969 401.640625 182.355469 C 403.390625 179.199219 405.121094 176.105469 406.960938 172.789062 C 408.027344 173.007812 409.015625 173.199219 410.003906 173.398438 C 419.0625 175.296875 422.671875 168.839844 422.277344 163.488281 C 422.132812 161.484375 421.117188 159.8125 419.570312 158.40625 C 418.90625 157.800781 418.210938 157.21875 417.390625 156.496094 C 420.515625 152.621094 423.332031 148.648438 426.675781 145.082031 C 434.753906 136.449219 442.875 127.828125 451.371094 119.550781 C 458.300781 112.800781 465.84375 106.59375 473.039062 100.066406 C 475.464844 97.863281 477.644531 95.425781 480.011719 93.023438 C 479.097656 92.957031 467.8125 93 463.425781 93.207031 C 458.324219 93.449219 453.414062 94.449219 448.890625 96.726562 C 443.839844 99.265625 440.398438 103.140625 437.976562 107.851562 C 437.207031 109.355469 436.355469 110.824219 435.632812 112.351562 C 433.359375 117.113281 429 118.859375 423.746094 119.269531 C 415.816406 119.890625 409.863281 116.859375 405.671875 110.800781 C 401.53125 104.828125 399.488281 98.226562 399.191406 91.191406 C 399.035156 87.34375 399.214844 83.488281 399.160156 79.636719 C 399.117188 76.953125 398.925781 74.277344 398.800781 71.589844 C 398.601562 71.519531 396.214844 73.160156 395.289062 74.109375 C 391.527344 77.957031 387.886719 81.890625 384.039062 85.664062 C 379.191406 90.425781 373.492188 94.058594 366.386719 95.324219 C 360 96.460938 353.757812 95.6875 348.089844 92.773438 C 342.386719 89.847656 338.847656 85.152344 337.535156 79.332031 C 336.382812 74.226562 340.074219 69.316406 345.121094 68.242188 C 350.375 67.121094 355.667969 66.726562 361.027344 66.777344 C 362.226562 66.789062 363.421875 66.621094 364.945312 66.519531 C 364.550781 65.820312 355.71875 58.003906 351.265625 54.71875 C 347.378906 51.855469 342.726562 50.53125 337.695312 50.429688 C 333.675781 50.351562 330.003906 51.53125 326.347656 52.832031 C 325.410156 53.164062 324.496094 53.550781 323.183594 53.527344 C 324.207031 51.109375 325.195312 48.683594 326.25 46.277344 C 328.066406 42.148438 330.246094 38.152344 331.175781 33.714844 C 331.75 30.960938 331.71875 28.273438 330.636719 25.707031 C 329.550781 23.109375 328.398438 20.460938 326.78125 18.132812 C 322.378906 11.8125 317.671875 5.671875 312.105469 0.140625 C 312.105469 0.132812 312.105469 0.132812 312.105469 0.128906 C 312.105469 0.132812 312.101562 0.132812 312.101562 0.132812 C 312.101562 0.132812 312.101562 0.132812 312.101562 0.128906 C 312.101562 0.132812 312.101562 0.132812 312.101562 0.140625 C 306.535156 5.671875 301.828125 11.8125 297.425781 18.132812 C 295.800781 20.460938 294.65625 23.109375 293.5625 25.707031 C 292.480469 28.273438 292.457031 30.960938 293.035156 33.714844 C 293.960938 38.152344 296.140625 42.148438 297.953125 46.277344 C 299.011719 48.683594 300 51.109375 301.023438 53.527344 C 299.703125 53.550781 298.796875 53.164062 297.859375 52.832031 C 294.203125 51.53125 290.523438 50.351562 286.511719 50.429688 C 281.472656 50.53125 276.828125 51.855469 272.941406 54.71875 C 268.488281 58.003906 259.65625 65.820312 259.261719 66.519531 C 260.78125 66.621094 261.980469 66.789062 263.175781 66.777344 C 268.539062 66.726562 273.824219 67.121094 279.082031 68.242188 C 284.128906 69.316406 287.824219 74.226562 286.671875 79.332031 C 285.359375 85.152344 281.820312 89.847656 276.117188 92.773438 C 270.449219 95.6875 264.199219 96.460938 257.820312 95.324219 C 250.710938 94.058594 245.015625 90.425781 240.160156 85.664062 C 236.320312 81.890625 232.671875 77.957031 228.917969 74.109375 C 227.992188 73.15625 225.601562 71.519531 225.398438 71.59375 C 225.277344 74.273438 225.085938 76.953125 225.046875 79.636719 C 224.988281 83.488281 225.167969 87.34375 225.007812 91.191406 C 224.71875 98.226562 222.675781 104.828125 218.535156 110.800781 C 214.339844 116.859375 208.382812 119.890625 200.457031 119.269531 C 195.199219 118.859375 190.84375 117.113281 188.570312 112.351562 C 187.847656 110.824219 187.003906 109.355469 186.230469 107.851562 C 183.800781 103.140625 180.363281 99.265625 175.316406 96.722656 C 170.785156 94.449219 165.878906 93.449219 160.777344 93.207031 C 156.394531 93 145.109375 92.957031 144.195312 93.023438 C 146.5625 95.425781 148.742188 97.863281 151.164062 100.066406 C 158.355469 106.59375 165.898438 112.800781 172.828125 119.550781 C 181.332031 127.828125 189.445312 136.449219 197.53125 145.082031 C 200.871094 148.648438 203.6875 152.621094 206.816406 156.496094 C 205.988281 157.21875 205.300781 157.800781 204.636719 158.40625 C 203.089844 159.8125 202.074219 161.484375 201.929688 163.488281 C 201.527344 168.839844 205.144531 175.296875 214.195312 173.398438 C 215.191406 173.199219 216.179688 173 217.246094 172.789062 C 219.082031 176.105469 220.808594 179.199219 222.566406 182.355469 C 216.945312 186.542969 215.808594 191.515625 219.296875 197.542969 C 218.160156 197.226562 217.433594 197.054688 216.742188 196.828125 C 210.726562 194.855469 204.710938 192.882812 198.699219 190.902344 C 187.988281 187.375 177.0625 184.617188 165.78125 183.148438 C 158.152344 182.152344 150.824219 182.964844 144.414062 187.101562 C 133.941406 193.875 129.277344 203.304688 130.386719 214.988281 C 131.132812 222.910156 133.425781 230.464844 137.738281 237.433594 C 139.007812 239.484375 140.210938 241.578125 141.488281 243.625 C 143.566406 246.945312 145.683594 250.246094 147.800781 253.574219 C 147.371094 253.945312 147.121094 254.210938 146.828125 254.417969 C 140.558594 258.746094 134.753906 263.554688 129.171875 268.589844 C 126.664062 270.863281 124.152344 273.15625 121.878906 275.621094 C 114.816406 283.28125 109.183594 291.820312 104.238281 300.726562 C 100.113281 308.148438 96.769531 315.886719 95.214844 324.140625 C 93.492188 333.289062 91.84375 342.433594 93.214844 351.789062 C 94.046875 357.519531 94.976562 363.21875 97.222656 368.65625 C 97.730469 369.902344 99.597656 372.226562 99.835938 372.207031 C 100.679688 359.445312 104.042969 347.390625 111.128906 336.3125 C 118.15625 325.320312 132.730469 311.527344 139.835938 309.617188 C 139.242188 311.097656 138.777344 312.394531 138.203125 313.648438 C 135.582031 319.371094 132.945312 325.089844 130.273438 330.796875 C 125.945312 340.058594 122.40625 349.574219 119.625 359.304688 C 117.210938 367.765625 114.914062 376.253906 113 384.808594 C 111.335938 392.261719 110.277344 399.8125 110.003906 407.449219 C 109.582031 419.203125 111.734375 430.636719 114.765625 441.96875 C 117.242188 451.21875 121.632812 459.722656 126.890625 467.914062 C 131.546875 475.179688 136.347656 482.3125 143.074219 488.167969 C 143.632812 488.65625 144.253906 489.078125 145.335938 489.914062 C 143.59375 484.964844 142.0625 480.660156 140.5625 476.335938 C 137.652344 467.933594 136.203125 459.308594 136.195312 450.507812 C 136.191406 442.898438 136.722656 435.3125 137.730469 427.734375 C 139.308594 415.835938 142.921875 404.46875 147.542969 393.320312 C 147.707031 392.9375 148.078125 392.625 148.71875 391.828125 C 148.238281 397.828125 147.730469 403.234375 147.394531 408.648438 C 146.890625 416.777344 146.484375 424.921875 147.285156 433.039062 C 148.226562 442.585938 150.992188 451.800781 154.398438 460.808594 C 157.871094 469.972656 161.582031 479.070312 165.585938 488.042969 C 169.164062 496.074219 173.8125 503.613281 179.636719 510.515625 C 185.550781 517.527344 191.984375 524.074219 198.851562 530.308594 C 207.722656 538.359375 217.574219 545.1875 228.183594 551.179688 C 233.699219 554.296875 239.066406 557.636719 244.382812 561.035156 C 247.65625 563.140625 250.675781 565.585938 253.863281 567.824219 C 265.378906 575.914062 275.449219 585.1875 283.664062 596.269531 C 293.527344 609.585938 303.101562 623.058594 312.101562 636.875 C 312.101562 636.875 312.101562 636.882812 312.101562 636.882812 C 312.101562 636.882812 312.101562 636.882812 312.101562 636.875 L 312.105469 636.882812 C 312.105469 636.882812 312.105469 636.875 312.105469 636.875 C 321.105469 623.058594 330.679688 609.585938 340.535156 596.269531 C 348.75 585.1875 358.824219 575.914062 370.339844 567.824219 C 373.523438 565.585938 376.542969 563.140625 379.820312 561.035156 C 385.132812 557.636719 390.503906 554.296875 396.023438 551.179688 C 406.632812 545.1875 416.480469 538.359375 425.355469 530.308594 C 432.214844 524.074219 438.652344 517.527344 444.566406 510.515625 C 450.394531 503.613281 455.035156 496.074219 458.621094 488.042969 C 462.621094 479.070312 466.335938 469.972656 469.800781 460.808594 C 473.214844 451.800781 475.980469 442.585938 476.921875 433.039062 C 477.71875 424.921875 477.308594 416.777344 476.8125 408.648438 C 476.476562 403.234375 475.96875 397.828125 475.488281 391.828125 C 476.125 392.625 476.5 392.9375 476.660156 393.320312 C 481.277344 404.46875 484.898438 415.835938 486.476562 427.734375 C 487.484375 435.3125 488.015625 442.898438 488.011719 450.507812 C 488.003906 459.308594 486.550781 467.933594 483.636719 476.335938 C 482.140625 480.660156 480.605469 484.964844 478.871094 489.914062 C 479.953125 489.078125 480.570312 488.65625 481.125 488.167969 C 487.859375 482.3125 492.660156 475.179688 497.316406 467.914062 C 502.574219 459.722656 506.964844 451.21875 509.433594 441.96875 C 512.464844 430.636719 514.625 419.203125 514.199219 407.449219 C 513.929688 399.8125 512.871094 392.261719 511.203125 384.808594 C 509.289062 376.253906 506.992188 367.765625 504.574219 359.304688 C 501.800781 349.574219 498.257812 340.058594 493.933594 330.796875 C 491.261719 325.089844 488.625 319.371094 486.003906 313.648438 C 485.425781 312.394531 484.960938 311.097656 484.371094 309.617188 C 491.476562 311.527344 506.050781 325.320312 513.078125 336.3125 C 520.160156 347.390625 523.519531 359.445312 524.371094 372.207031 C 524.601562 372.226562 526.476562 369.902344 526.984375 368.65625 C 529.226562 363.21875 530.152344 357.519531 530.992188 351.789062 C 532.359375 342.433594 530.714844 333.289062 528.992188 324.140625 Z M 438.496094 193.941406 C 444.53125 192.128906 450.875 191.046875 457.164062 190.125 C 460.972656 189.570312 465.007812 189.566406 468.839844 190.015625 C 477.984375 191.105469 486.003906 200.105469 486.863281 209.386719 C 487.328125 214.316406 486.550781 219.152344 485.023438 223.898438 C 482.140625 232.859375 470.339844 248.503906 469.96875 248.792969 C 469.007812 248.128906 468.09375 247.511719 467.199219 246.867188 C 466.242188 246.191406 465.308594 245.492188 464.445312 244.863281 C 467.621094 237.257812 466.175781 229.691406 466.109375 222.152344 C 469.570312 225.644531 470.785156 230.085938 472.613281 234.398438 C 472.964844 234.242188 479.582031 220.058594 478.078125 212.613281 C 477.078125 207.621094 473.902344 204.117188 468.503906 202.390625 C 464.738281 201.1875 460.945312 201.214844 457.230469 202.160156 C 453.199219 203.175781 449.289062 204.59375 445.332031 205.863281 C 444.640625 206.089844 443.992188 206.441406 443.09375 206.828125 C 444.328125 208.894531 445.460938 210.796875 446.601562 212.703125 C 447.699219 214.527344 449.371094 216.136719 449.335938 218.828125 C 442.707031 215.0625 436.375 211.410156 428.089844 212.414062 C 430.304688 215.351562 432.382812 218.132812 434.496094 220.890625 C 436.644531 223.707031 438.375 226.695312 439.394531 230.039062 C 438.71875 229.875 424.15625 219.742188 416.609375 215.925781 C 414.355469 214.785156 412.144531 213.566406 409.992188 212.265625 C 407 210.445312 404.082031 208.511719 400.550781 206.261719 C 413.589844 201.996094 425.945312 197.707031 438.496094 193.941406 Z M 156.429688 98.019531 C 158.335938 98.128906 159.863281 98.132812 161.367188 98.320312 C 165.910156 98.867188 170.503906 99.320312 174.308594 102.03125 C 177.511719 104.3125 180.230469 106.960938 181.964844 110.386719 C 182.769531 111.96875 183.707031 113.5 184.464844 115.101562 C 187.109375 120.6875 192.308594 123.019531 198.335938 124.121094 C 209.46875 126.15625 217.691406 121.144531 223.75 112.578125 C 227.726562 106.949219 229.421875 100.574219 230.074219 93.964844 C 230.402344 90.664062 230.566406 87.34375 230.820312 83.761719 C 231.359375 84.183594 236.476562 89.628906 238.867188 91.75 C 244.257812 96.5625 250.585938 99.996094 258.160156 100.734375 C 267.289062 101.632812 275.902344 100.082031 283.105469 94.445312 C 288.496094 90.222656 291.605469 84.8125 291.976562 78.261719 C 292.480469 69.378906 286.621094 63.351562 276.953125 62.6875 C 275.285156 62.570312 273.59375 62.667969 271.328125 62.667969 C 273.507812 60.1875 275.828125 58.882812 278.128906 57.570312 C 282.148438 55.273438 286.453125 54.554688 291.023438 55.839844 C 293.296875 56.476562 295.523438 57.269531 297.707031 58.105469 C 300.878906 59.320312 303.992188 60.65625 307.136719 61.917969 C 307.808594 62.183594 308.523438 62.351562 309.757812 62.71875 C 308.773438 59.957031 308.015625 57.5625 307.074219 55.226562 C 304.691406 49.324219 302.308594 43.421875 299.773438 37.570312 C 297.699219 32.765625 298.039062 28.296875 300.75 23.714844 C 304.042969 18.167969 307.496094 12.753906 312.101562 8.019531 C 312.101562 8.011719 312.101562 8.011719 312.101562 8.011719 C 316.703125 12.75 320.164062 18.160156 323.453125 23.714844 C 326.167969 28.296875 326.503906 32.765625 324.425781 37.570312 C 321.898438 43.421875 319.515625 49.324219 317.132812 55.226562 C 316.191406 57.5625 315.425781 59.957031 314.449219 62.71875 C 315.679688 62.351562 316.398438 62.183594 317.0625 61.917969 C 320.210938 60.65625 323.328125 59.320312 326.492188 58.105469 C 328.683594 57.269531 330.910156 56.476562 333.183594 55.839844 C 337.746094 54.554688 342.054688 55.273438 346.070312 57.570312 C 348.378906 58.882812 350.691406 60.1875 352.875 62.675781 C 350.613281 62.675781 348.921875 62.570312 347.25 62.6875 C 337.578125 63.351562 331.71875 69.378906 332.222656 78.261719 C 332.59375 84.8125 335.707031 90.222656 341.097656 94.445312 C 348.304688 100.082031 356.910156 101.632812 366.042969 100.734375 C 373.621094 99.996094 379.941406 96.554688 385.339844 91.75 C 387.722656 89.628906 392.84375 84.1875 393.378906 83.761719 C 393.640625 87.34375 393.800781 90.664062 394.132812 93.964844 C 394.785156 100.574219 396.472656 106.949219 400.449219 112.578125 C 406.511719 121.144531 414.730469 126.15625 425.871094 124.121094 C 431.898438 123.019531 437.097656 120.6875 439.742188 115.101562 C 440.492188 113.5 441.433594 111.96875 442.234375 110.386719 C 443.976562 106.960938 446.691406 104.3125 449.898438 102.03125 C 453.699219 99.320312 458.296875 98.867188 462.835938 98.320312 C 464.339844 98.132812 465.867188 98.128906 467.777344 98.019531 C 447.058594 115.199219 428.582031 133.546875 412.082031 153.636719 C 408.839844 152.167969 405.816406 150.6875 402.699219 149.386719 C 389.34375 143.816406 375.351562 140.089844 361.039062 137.28125 C 351.214844 135.351562 341.253906 134.320312 331.261719 133.644531 C 324.894531 133.21875 318.484375 133.234375 312.101562 133.050781 C 305.714844 133.234375 299.3125 133.21875 292.941406 133.644531 C 282.949219 134.320312 272.988281 135.351562 263.164062 137.28125 C 248.855469 140.089844 234.859375 143.816406 221.507812 149.386719 C 218.390625 150.6875 215.359375 152.167969 212.125 153.636719 C 195.617188 133.546875 177.148438 115.199219 156.429688 98.019531 Z M 217.691406 165.847656 C 216.046875 166.519531 214.363281 167.167969 212.621094 167.59375 C 210.761719 168.058594 209.191406 167.363281 208.457031 166.070312 C 207.601562 164.558594 207.898438 163.066406 209.511719 161.867188 C 210.609375 161.042969 211.847656 160.351562 213.101562 159.730469 C 227.707031 152.503906 243.179688 147.46875 259.335938 144.011719 C 276.34375 140.367188 293.539062 138.773438 310.960938 138.894531 C 311.34375 138.894531 311.71875 138.847656 312.101562 138.832031 C 312.480469 138.847656 312.863281 138.894531 313.238281 138.894531 C 330.660156 138.773438 347.863281 140.367188 364.871094 144.003906 C 381.023438 147.46875 396.492188 152.503906 411.101562 159.730469 C 412.359375 160.351562 413.589844 161.042969 414.695312 161.867188 C 416.304688 163.066406 416.605469 164.558594 415.746094 166.070312 C 415.007812 167.363281 413.441406 168.058594 411.582031 167.59375 C 409.84375 167.167969 408.160156 166.519531 406.511719 165.847656 C 402.507812 164.207031 398.601562 162.351562 394.542969 160.84375 C 381.714844 156.078125 368.570312 152.167969 355.007812 149.589844 C 347.261719 148.117188 339.476562 146.804688 331.523438 146.597656 C 325.046875 146.421875 299.160156 146.421875 292.683594 146.597656 C 284.722656 146.804688 276.945312 148.117188 269.199219 149.589844 C 255.632812 152.167969 242.492188 156.078125 229.65625 160.84375 C 225.601562 162.351562 221.699219 164.207031 217.691406 165.847656 Z M 379.84375 321.8125 C 378.265625 323.960938 376.945312 326.363281 375.015625 328.222656 C 373.082031 330.085938 370.539062 331.402344 368.257812 332.957031 C 371.09375 333.082031 373.910156 333.148438 376.542969 332.53125 C 379.15625 331.917969 381.582031 330.617188 384.386719 329.5 C 385.046875 331.445312 385.734375 333.246094 386.265625 335.082031 C 387.128906 338.027344 386.929688 338.460938 383.882812 339.746094 C 377.46875 342.445312 370.699219 343.753906 363.65625 343.898438 C 363.066406 343.902344 362.480469 343.960938 361.890625 343.996094 C 369.710938 348.4375 378.0625 348.683594 386.625 346.847656 C 387.050781 351.050781 385.390625 355.746094 382.089844 359.902344 C 374.070312 358.902344 366.230469 357.0625 358.703125 353.878906 C 359.074219 354.867188 359.519531 355.722656 360.132812 356.457031 C 362.273438 358.992188 365.03125 360.855469 368.210938 362.164062 C 370.382812 363.058594 372.613281 363.84375 374.789062 364.730469 C 375.414062 364.984375 375.953125 365.421875 376.667969 365.855469 C 376.101562 366.277344 375.847656 366.5625 375.511719 366.699219 C 374.824219 366.984375 374.105469 367.25 373.371094 367.410156 C 362.742188 369.789062 352.726562 368.476562 343.496094 362.988281 C 336.621094 358.902344 330.003906 354.457031 322.515625 351.242188 C 319.007812 349.738281 316.710938 347.015625 316.023438 343.382812 C 315.097656 338.542969 316.195312 334.316406 320.691406 331.230469 C 322.355469 330.085938 324.050781 328.945312 325.867188 328.007812 C 330.066406 325.824219 334.664062 324.671875 339.449219 324.226562 C 347.296875 323.503906 353.359375 320.246094 357.261719 313.863281 C 357.546875 313.398438 357.621094 312.832031 357.964844 311.78125 C 355.488281 312.9375 353.578125 313.894531 351.613281 314.730469 C 347.1875 316.597656 343.183594 315.574219 340.460938 311.960938 C 338.136719 308.878906 336.359375 308.335938 332.691406 309.796875 C 326.113281 312.410156 319.320312 313.890625 312.101562 313.25 C 312.101562 313.25 312.101562 313.25 312.101562 313.253906 C 304.882812 313.890625 298.089844 312.410156 291.515625 309.796875 C 287.847656 308.335938 286.070312 308.878906 283.746094 311.960938 C 281.019531 315.574219 277.019531 316.597656 272.589844 314.730469 C 270.621094 313.894531 268.71875 312.9375 266.238281 311.78125 C 266.582031 312.832031 266.660156 313.398438 266.9375 313.863281 C 270.839844 320.246094 276.902344 323.503906 284.757812 324.226562 C 289.542969 324.671875 294.132812 325.824219 298.339844 328.007812 C 300.15625 328.945312 301.851562 330.085938 303.523438 331.230469 C 308.011719 334.316406 309.109375 338.542969 308.183594 343.382812 C 307.496094 347.015625 305.199219 349.738281 301.683594 351.242188 C 294.199219 354.457031 287.582031 358.902344 280.710938 362.988281 C 271.476562 368.476562 261.464844 369.789062 250.832031 367.410156 C 250.097656 367.25 249.382812 366.984375 248.691406 366.699219 C 248.359375 366.5625 248.101562 366.277344 247.535156 365.855469 C 248.253906 365.421875 248.785156 364.984375 249.410156 364.730469 C 251.589844 363.84375 253.816406 363.058594 255.992188 362.164062 C 259.175781 360.855469 261.925781 358.992188 264.074219 356.457031 C 264.691406 355.722656 265.132812 354.867188 265.503906 353.878906 C 257.972656 357.0625 250.132812 358.902344 242.117188 359.902344 C 238.8125 355.746094 237.152344 351.050781 237.574219 346.847656 C 246.140625 348.683594 254.488281 348.4375 262.308594 343.996094 C 261.726562 343.960938 261.140625 343.902344 260.550781 343.898438 C 253.503906 343.753906 246.738281 342.445312 240.324219 339.746094 C 237.273438 338.460938 237.074219 338.027344 237.941406 335.082031 C 238.472656 333.246094 239.160156 331.445312 239.820312 329.5 C 242.625 330.617188 245.050781 331.917969 247.65625 332.53125 C 250.296875 333.148438 253.113281 333.082031 255.945312 332.957031 C 253.667969 331.402344 251.121094 330.085938 249.191406 328.222656 C 247.257812 326.363281 245.933594 323.960938 244.355469 321.8125 C 247.546875 316.488281 250.902344 311.675781 256.636719 308.566406 C 255.460938 306.300781 253.65625 304.621094 251.648438 303.183594 C 249.328125 301.511719 246.933594 299.875 244.371094 298.546875 C 237.066406 294.765625 229.65625 291.152344 222.292969 287.457031 C 215.984375 284.292969 214.761719 282.050781 216.957031 275.714844 C 220.273438 266.105469 224.804688 256.980469 230.558594 248.34375 C 233.191406 244.386719 236.796875 242.898438 241.484375 243 C 244.046875 243.058594 246.621094 243.296875 249.160156 243.625 C 252.738281 244.085938 256.28125 244.710938 260.226562 245.332031 C 259.925781 244.492188 259.800781 243.851562 259.488281 243.296875 C 258.050781 240.726562 256.523438 238.207031 255.101562 235.632812 C 254.5 234.546875 254.054688 233.390625 253.585938 232.246094 C 252.125 228.660156 252.378906 225.199219 254.617188 221.9375 C 256.292969 219.503906 257.949219 217.039062 259.816406 214.734375 C 262.535156 211.375 266.363281 209.425781 270.65625 208.246094 C 274.402344 207.21875 277.816406 208.230469 281.066406 209.898438 C 286.816406 212.855469 290.878906 217.382812 294.382812 222.324219 C 301.394531 232.21875 306.808594 242.773438 309.984375 254.257812 C 310.539062 256.265625 311.386719 258.199219 312.101562 260.171875 C 312.101562 260.179688 312.101562 260.183594 312.101562 260.191406 C 312.816406 258.210938 313.667969 256.269531 314.222656 254.257812 C 317.398438 242.773438 322.8125 232.21875 329.824219 222.324219 C 333.328125 217.382812 337.382812 212.859375 343.136719 209.898438 C 346.390625 208.230469 349.800781 207.21875 353.550781 208.246094 C 357.839844 209.425781 361.671875 211.375 364.390625 214.734375 C 366.257812 217.039062 367.90625 219.503906 369.582031 221.9375 C 371.828125 225.199219 372.082031 228.660156 370.617188 232.246094 C 370.152344 233.390625 369.707031 234.546875 369.105469 235.632812 C 367.679688 238.207031 366.152344 240.726562 364.714844 243.296875 C 364.40625 243.851562 364.273438 244.492188 363.980469 245.332031 C 367.921875 244.710938 371.464844 244.085938 375.042969 243.625 C 377.582031 243.296875 380.152344 243.058594 382.71875 243.007812 C 387.410156 242.898438 391.007812 244.386719 393.644531 248.34375 C 399.402344 256.980469 403.929688 266.105469 407.25 275.714844 C 409.4375 282.050781 408.222656 284.292969 401.910156 287.457031 C 394.546875 291.152344 387.140625 294.765625 379.832031 298.546875 C 377.269531 299.875 374.875 301.511719 372.558594 303.183594 C 370.554688 304.621094 368.746094 306.300781 367.570312 308.566406 C 373.304688 311.675781 376.65625 316.488281 379.84375 321.8125 Z M 373.019531 189.039062 C 356.605469 183.414062 339.574219 180.703125 322.070312 180.320312 C 318.746094 180.25 305.453125 180.25 302.128906 180.320312 C 284.628906 180.703125 267.601562 183.414062 251.1875 189.039062 C 245.5625 190.964844 240.082031 193.230469 234.480469 195.214844 C 232.917969 195.769531 231.171875 196.046875 229.496094 196.128906 C 227.1875 196.242188 225.441406 194.914062 224.84375 192.972656 C 224.191406 190.855469 224.933594 188.867188 227.007812 187.761719 C 228.820312 186.796875 230.691406 185.894531 232.628906 185.171875 C 243.417969 181.183594 254.398438 177.679688 265.679688 175.023438 C 280.429688 171.554688 312.101562 170.351562 312.101562 170.351562 C 312.5625 170.273438 343.746094 171.550781 358.523438 175.023438 C 369.808594 177.679688 380.78125 181.183594 391.574219 185.171875 C 393.511719 185.894531 395.386719 186.796875 397.191406 187.761719 C 399.269531 188.867188 400.015625 190.855469 399.359375 192.972656 C 398.765625 194.914062 397.019531 196.242188 394.710938 196.128906 C 393.03125 196.046875 391.285156 195.769531 389.722656 195.214844 C 384.125 193.230469 378.640625 190.964844 373.019531 189.039062 Z M 395.5625 179.886719 C 394.894531 179.71875 394.53125 179.648438 394.183594 179.539062 C 389.253906 177.914062 384.375 176.164062 379.398438 174.667969 C 359.746094 168.75 339.71875 164.652344 318.898438 164.511719 C 316.628906 164.503906 307.570312 164.503906 305.304688 164.511719 C 284.484375 164.652344 264.460938 168.75 244.804688 174.667969 C 239.832031 176.164062 234.949219 177.914062 230.023438 179.539062 C 229.675781 179.648438 229.308594 179.71875 228.644531 179.886719 C 227.046875 176.695312 225.46875 173.550781 223.757812 170.144531 C 225.515625 169.285156 227.113281 168.371094 228.820312 167.683594 C 248.0625 159.964844 268.03125 154.546875 288.96875 152.644531 C 296.628906 151.945312 304.382812 152.164062 312.101562 151.960938 C 319.808594 152.164062 327.574219 151.945312 335.238281 152.644531 C 356.175781 154.546875 376.144531 159.964844 395.382812 167.683594 C 397.09375 168.371094 398.691406 169.285156 400.449219 170.144531 C 398.734375 173.550781 397.15625 176.695312 395.5625 179.886719 Z M 139.179688 223.898438 C 137.652344 219.152344 136.878906 214.316406 137.339844 209.386719 C 138.203125 200.105469 146.21875 191.105469 155.363281 190.015625 C 159.199219 189.566406 163.230469 189.570312 167.042969 190.125 C 173.332031 191.046875 179.675781 192.128906 185.707031 193.941406 C 198.253906 197.707031 210.617188 201.996094 223.648438 206.261719 C 220.125 208.511719 217.203125 210.445312 214.207031 212.265625 C 212.0625 213.566406 209.851562 214.785156 207.597656 215.925781 C 200.046875 219.742188 185.488281 229.875 184.804688 230.039062 C 185.832031 226.695312 187.558594 223.707031 189.710938 220.890625 C 191.824219 218.132812 193.898438 215.351562 196.113281 212.414062 C 187.832031 211.410156 181.496094 215.0625 174.871094 218.828125 C 174.835938 216.136719 176.507812 214.527344 177.597656 212.703125 C 178.738281 210.796875 179.878906 208.894531 181.109375 206.828125 C 180.214844 206.441406 179.566406 206.089844 178.871094 205.863281 C 174.914062 204.59375 171.003906 203.175781 166.972656 202.160156 C 163.261719 201.214844 159.460938 201.1875 155.695312 202.390625 C 150.304688 204.117188 147.121094 207.621094 146.121094 212.613281 C 144.625 220.058594 151.242188 234.242188 151.59375 234.398438 C 153.421875 230.085938 154.636719 225.644531 158.09375 222.152344 C 158.03125 229.691406 156.585938 237.257812 159.761719 244.863281 C 158.898438 245.492188 157.960938 246.191406 157.007812 246.867188 C 156.109375 247.511719 155.195312 248.128906 154.238281 248.792969 C 153.867188 248.503906 142.0625 232.859375 139.179688 223.898438 Z M 115.660156 309.613281 C 113.082031 312.976562 107.472656 321.035156 106.582031 321.378906 C 107.199219 319.296875 107.742188 317.191406 108.453125 315.132812 C 115.75 294.011719 129.84375 277.390625 149.046875 264.316406 C 154.625 260.523438 160.761719 257.410156 166.75 254.136719 C 178.230469 247.855469 189.539062 241.328125 200.09375 233.796875 C 207.699219 228.367188 215.085938 222.683594 222.480469 217.011719 C 228.429688 212.449219 241.820312 205.246094 241.976562 205.375 C 239.214844 208.242188 236.464844 211.125 233.671875 213.96875 C 226.191406 221.574219 218.753906 229.21875 211.1875 236.738281 C 202.992188 244.886719 193.882812 252.003906 183.441406 257.703125 C 174.421875 262.625 165.367188 267.53125 156.789062 273.054688 C 140.996094 283.210938 126.832031 295.042969 115.660156 309.613281 Z M 160.34375 335.714844 C 156.898438 340.1875 154.011719 345.09375 151.554688 350.097656 C 146.929688 359.503906 143.171875 369.226562 140.234375 379.207031 C 140.101562 379.667969 139.851562 380.097656 139.65625 380.542969 C 139.5 380.511719 139.34375 380.484375 139.179688 380.457031 C 139.410156 376.554688 139.511719 372.640625 139.890625 368.753906 C 140.835938 359.3125 143.386719 350.160156 146.121094 341.058594 C 149.03125 331.328125 152.855469 321.949219 158.574219 313.261719 C 162.363281 307.507812 167.003906 302.414062 172.347656 297.914062 C 178.890625 292.421875 185.714844 287.226562 192.453125 281.933594 C 198.46875 277.210938 203.355469 271.683594 206.972656 265.214844 C 207.398438 264.457031 207.972656 263.769531 208.867188 262.492188 C 208.867188 263.539062 208.980469 264 208.851562 264.394531 C 206.519531 271.683594 204.433594 279.0625 201.714844 286.230469 C 199.261719 292.707031 195.300781 298.546875 190.386719 303.738281 C 185.078125 309.351562 179.433594 314.699219 174.113281 320.308594 C 169.355469 325.316406 164.507812 330.304688 160.34375 335.714844 Z M 267.132812 532.597656 C 263.441406 529.574219 259.875 526.339844 256.78125 522.808594 C 251.878906 517.226562 247.21875 511.441406 242.839844 505.507812 C 236.785156 497.292969 233.03125 488.09375 230.8125 478.449219 C 229.132812 471.101562 227.972656 463.644531 226.78125 456.207031 C 225.335938 447.164062 225.085938 438.078125 226.140625 428.976562 C 226.527344 425.675781 227.125 422.390625 227.617188 419.101562 C 227.691406 418.597656 227.714844 418.09375 227.792969 417.273438 C 227.261719 417.65625 226.9375 417.8125 226.730469 418.054688 C 216.972656 429.515625 210.523438 442.515625 205.558594 456.214844 C 202.285156 465.261719 202.292969 474.425781 204.0625 483.699219 C 204.582031 486.453125 205.085938 492.648438 204.457031 493.320312 C 204.246094 492.945312 204.066406 492.546875 203.824219 492.1875 C 197.828125 483.453125 191.671875 474.808594 187.710938 465.054688 C 184.5 457.144531 182.554688 448.957031 180.984375 440.679688 C 179.445312 432.550781 178.957031 424.355469 179.023438 416.113281 C 179.089844 407.386719 180.457031 398.828125 182.8125 390.433594 C 184.992188 382.648438 187.402344 374.898438 190.226562 367.296875 C 192.804688 360.347656 195.957031 353.578125 199.066406 346.804688 C 202.835938 338.585938 206.828125 330.449219 210.726562 322.28125 C 210.910156 321.890625 211.160156 321.539062 211.378906 321.167969 C 211.542969 321.203125 211.703125 321.246094 211.871094 321.28125 C 211.773438 321.960938 211.730469 322.648438 211.570312 323.316406 C 209.285156 332.882812 206.929688 342.441406 204.703125 352.015625 C 200.925781 368.261719 199.359375 384.695312 199.699219 401.296875 C 199.828125 407.25 199.742188 413.199219 199.863281 419.148438 C 199.914062 421.382812 200.289062 423.621094 200.582031 426.519531 C 213.691406 413.242188 225.972656 400.074219 239.9375 387.484375 C 240.058594 390.097656 240.265625 392.144531 240.226562 394.179688 C 240.011719 405.207031 239.492188 416.226562 239.546875 427.246094 C 239.617188 440.019531 240.195312 452.789062 242.226562 465.453125 C 243.695312 474.652344 246.007812 483.671875 249.773438 492.320312 C 252.828125 499.339844 257.027344 505.816406 261.75 511.984375 C 267.070312 518.933594 272.675781 525.691406 277.945312 532.664062 C 282.078125 538.128906 290.144531 549.957031 290.027344 550.519531 C 289.566406 550.183594 274.179688 538.367188 267.132812 532.597656 Z M 330.839844 433.816406 C 332.75 423.164062 332.421875 413.121094 326.046875 403.824219 C 325.628906 404.769531 325.496094 405.699219 325.335938 406.628906 C 325.035156 408.359375 324.84375 410.109375 324.390625 411.796875 C 322.617188 418.355469 319.949219 424.628906 316.957031 430.78125 C 315.460938 433.863281 313.726562 436.839844 312.101562 439.867188 C 312.101562 439.863281 312.101562 439.863281 312.101562 439.855469 C 310.476562 436.832031 308.738281 433.855469 307.246094 430.78125 C 304.25 424.628906 301.589844 418.355469 299.8125 411.796875 C 299.363281 410.109375 299.167969 408.359375 298.871094 406.628906 C 298.710938 405.699219 298.578125 404.769531 298.152344 403.824219 C 291.78125 413.121094 291.457031 423.164062 293.363281 433.816406 C 292.503906 433.105469 291.496094 432.496094 290.808594 431.671875 C 286.597656 426.617188 282.96875 421.210938 282.023438 414.804688 C 281.378906 410.492188 281.476562 406.09375 281.292969 401.726562 C 281.222656 400.097656 281.289062 398.464844 281.289062 396.296875 C 273.78125 401.074219 271.507812 407.929688 269.515625 415.457031 C 266.601562 410.699219 264.664062 406.179688 263.410156 401.410156 C 262.351562 397.378906 262.027344 393.300781 262.730469 389.167969 C 263.253906 386.144531 265 384.023438 267.972656 382.746094 C 269.347656 382.15625 270.804688 381.714844 272.253906 381.265625 C 276.609375 379.890625 280.21875 377.691406 282.859375 374.085938 C 285.199219 370.886719 287.851562 367.886719 290.488281 364.890625 C 293.550781 361.40625 297.308594 358.710938 302.164062 357.726562 C 304.5625 357.242188 307.078125 357.234375 309.542969 357.023438 C 310.394531 356.945312 311.25 356.914062 312.101562 356.855469 C 312.949219 356.914062 313.804688 356.945312 314.664062 357.023438 C 317.121094 357.234375 319.636719 357.242188 322.042969 357.726562 C 326.894531 358.710938 330.648438 361.40625 333.714844 364.890625 C 336.351562 367.886719 339.007812 370.886719 341.34375 374.085938 C 343.988281 377.691406 347.597656 379.890625 351.953125 381.265625 C 353.398438 381.714844 354.855469 382.15625 356.234375 382.746094 C 359.207031 384.023438 360.953125 386.144531 361.472656 389.167969 C 362.179688 393.300781 361.851562 397.378906 360.792969 401.410156 C 359.542969 406.179688 357.605469 410.699219 354.683594 415.457031 C 352.695312 407.929688 350.425781 401.074219 342.917969 396.296875 C 342.917969 398.464844 342.980469 400.097656 342.90625 401.726562 C 342.726562 406.09375 342.824219 410.492188 342.183594 414.804688 C 341.234375 421.210938 337.609375 426.617188 333.398438 431.671875 C 332.703125 432.496094 331.703125 433.105469 330.839844 433.816406 Z M 443.21875 440.679688 C 441.648438 448.957031 439.707031 457.144531 436.496094 465.054688 C 432.535156 474.808594 426.375 483.453125 420.378906 492.1875 C 420.136719 492.546875 419.957031 492.945312 419.75 493.320312 C 419.113281 492.648438 419.625 486.453125 420.144531 483.699219 C 421.90625 474.425781 421.917969 465.261719 418.640625 456.214844 C 413.675781 442.515625 407.234375 429.515625 397.476562 418.054688 C 397.265625 417.8125 396.941406 417.65625 396.410156 417.273438 C 396.484375 418.09375 396.515625 418.597656 396.597656 419.101562 C 397.082031 422.390625 397.675781 425.675781 398.058594 428.976562 C 399.117188 438.078125 398.871094 447.164062 397.421875 456.207031 C 396.230469 463.644531 395.074219 471.101562 393.390625 478.449219 C 391.175781 488.09375 387.421875 497.292969 381.367188 505.507812 C 376.988281 511.441406 372.324219 517.226562 367.425781 522.808594 C 364.332031 526.339844 360.761719 529.574219 357.074219 532.597656 C 350.027344 538.367188 334.636719 550.183594 334.179688 550.519531 C 334.0625 549.957031 342.125 538.128906 346.257812 532.664062 C 351.53125 525.691406 357.136719 518.933594 362.457031 511.984375 C 367.175781 505.816406 371.375 499.339844 374.429688 492.320312 C 378.195312 483.671875 380.511719 474.652344 381.980469 465.453125 C 384.007812 452.789062 384.582031 440.019531 384.65625 427.246094 C 384.714844 416.226562 384.1875 405.207031 383.976562 394.179688 C 383.941406 392.144531 384.148438 390.097656 384.265625 387.484375 C 398.234375 400.074219 410.507812 413.242188 423.621094 426.519531 C 423.914062 423.621094 424.289062 421.382812 424.34375 419.148438 C 424.464844 413.199219 424.378906 407.25 424.5 401.296875 C 424.847656 384.695312 423.277344 368.261719 419.5 352.015625 C 417.273438 342.441406 414.914062 332.882812 412.636719 323.316406 C 412.472656 322.648438 412.433594 321.960938 412.335938 321.28125 C 412.496094 321.246094 412.664062 321.203125 412.828125 321.167969 C 413.046875 321.539062 413.296875 321.890625 413.480469 322.28125 C 417.378906 330.449219 421.363281 338.585938 425.140625 346.804688 C 428.242188 353.578125 431.394531 360.347656 433.972656 367.296875 C 436.800781 374.898438 439.214844 382.648438 441.394531 390.433594 C 443.75 398.828125 445.109375 407.386719 445.179688 416.113281 C 445.242188 424.355469 444.761719 432.550781 443.21875 440.679688 Z M 485.023438 380.457031 C 484.863281 380.484375 484.707031 380.511719 484.546875 380.542969 C 484.355469 380.097656 484.105469 379.667969 483.96875 379.207031 C 481.035156 369.226562 477.273438 359.503906 472.652344 350.097656 C 470.195312 345.09375 467.300781 340.1875 463.859375 335.714844 C 459.695312 330.304688 454.84375 325.316406 450.09375 320.308594 C 444.773438 314.699219 439.128906 309.351562 433.8125 303.738281 C 428.90625 298.546875 424.945312 292.707031 422.492188 286.230469 C 419.773438 279.0625 417.683594 271.683594 415.355469 264.394531 C 415.226562 264 415.335938 263.539062 415.335938 262.492188 C 416.234375 263.769531 416.804688 264.457031 417.226562 265.214844 C 420.847656 271.683594 425.738281 277.210938 431.753906 281.933594 C 438.484375 287.226562 445.316406 292.421875 451.851562 297.914062 C 457.203125 302.414062 461.84375 307.507812 465.625 313.261719 C 471.351562 321.949219 475.167969 331.328125 478.085938 341.058594 C 480.8125 350.160156 483.371094 359.3125 484.3125 368.753906 C 484.695312 372.640625 484.792969 376.554688 485.023438 380.457031 Z M 508.542969 309.613281 C 497.367188 295.042969 483.210938 283.210938 467.417969 273.054688 C 458.835938 267.53125 449.777344 262.625 440.765625 257.703125 C 430.324219 252.003906 421.207031 244.886719 413.015625 236.738281 C 405.445312 229.21875 398.011719 221.574219 390.535156 213.96875 C 387.742188 211.125 384.992188 208.242188 382.226562 205.375 C 382.382812 205.246094 395.773438 212.449219 401.722656 217.011719 C 409.117188 222.683594 416.503906 228.367188 424.113281 233.796875 C 434.667969 241.328125 445.976562 247.855469 457.457031 254.136719 C 463.445312 257.410156 469.582031 260.523438 475.15625 264.316406 C 494.359375 277.390625 508.457031 294.011719 515.75 315.132812 C 516.460938 317.191406 517.007812 319.296875 517.625 321.378906 C 516.734375 321.035156 511.117188 312.976562 508.542969 309.613281 " fill-opacity="1" fill-rule="nonzero"/></g><path fill="#201d1c" d="M 376.691406 260.710938 C 379.734375 260.578125 387.265625 260.398438 388.179688 259.902344 C 387.226562 259.269531 375.128906 254.03125 369.40625 254.285156 C 366.195312 254.425781 363.09375 255.015625 360.492188 256.761719 C 356.886719 259.183594 353.410156 261.78125 349.953125 264.382812 C 347.898438 265.925781 345.988281 267.625 343.796875 269.433594 C 339.910156 262.75 334.726562 257.496094 327.300781 253.273438 C 328.066406 254.824219 328.503906 255.898438 329.101562 256.898438 C 334.460938 265.828125 338.535156 275.25 341.546875 285.027344 C 343.15625 290.230469 344.109375 295.597656 345.363281 300.894531 C 345.519531 301.558594 345.675781 302.222656 346.117188 302.910156 C 349.199219 296.480469 349.96875 289.625 350.617188 282.644531 C 352.710938 282.332031 354.710938 282.1875 356.621094 281.722656 C 358.53125 281.253906 360.414062 280.582031 362.195312 279.789062 C 364.824219 278.617188 366.425781 276.617188 367.222656 274.03125 C 367.867188 271.925781 368.625 269.851562 369.375 267.78125 C 369.769531 266.707031 370.171875 265.625 370.71875 264.613281 C 371.925781 262.339844 373.816406 260.84375 376.691406 260.710938 Z M 362.5625 271.554688 C 361.636719 274.441406 359.738281 276.117188 356.382812 276.570312 C 352.785156 277.0625 350.019531 275.90625 347.257812 273.625 C 349.175781 272.144531 350.8125 270.890625 352.605469 269.515625 C 353.464844 271.167969 354.167969 272.535156 355.132812 274.414062 C 355.648438 273.164062 355.996094 272.488281 356.203125 271.777344 C 356.789062 269.757812 357.394531 267.734375 357.835938 265.6875 C 358.101562 264.445312 358.742188 263.601562 359.96875 263.121094 C 361.082031 262.6875 362.214844 262.300781 363.625 261.792969 C 364.066406 265.457031 363.539062 268.519531 362.5625 271.554688 " fill-opacity="1" fill-rule="nonzero"/><path fill="#201d1c" d="M 345.578125 259.699219 C 346.234375 259.617188 346.890625 259.472656 347.503906 259.242188 C 351.671875 257.675781 356.164062 250.613281 354.554688 246.84375 C 354.007812 245.542969 353.746094 244.105469 352.988281 242.925781 C 349.6875 237.8125 341.785156 227.371094 341.558594 227.429688 C 342.160156 230.242188 342.8125 233.039062 343.339844 235.859375 C 343.894531 238.871094 344.460938 241.890625 344.785156 244.925781 C 345.0625 247.503906 344.285156 249.925781 342.90625 252.214844 C 342.230469 253.351562 341.621094 254.605469 341.398438 255.863281 C 340.917969 258.484375 342.714844 260.046875 345.578125 259.699219 " fill-opacity="1" fill-rule="nonzero"/></svg>